<svg width="157" height="157" viewBox="0 0 157 157" fill="none" xmlns="http://www.w3.org/2000/svg">
<g clip-path="url(#clip0_256_827)">
<path d="M156.982 40.7868C156.982 50.7763 156.97 60.7657 157 70.7551C157 71.7392 156.726 72.459 156.009 73.1393C154.342 74.7217 152.77 76.4013 151.115 77.9989C150.552 78.5395 150.549 78.8797 151.112 79.4264C152.885 81.1485 154.591 82.9404 156.358 84.6716C156.796 85.0999 156.976 85.5403 156.976 86.1386C156.97 106.117 156.982 126.096 156.964 146.075C156.96 150.291 153.606 154.68 149.324 156.28C148.068 156.751 146.787 156.988 145.443 156.988C125.54 156.982 105.635 156.982 85.7323 156.997C85.0115 156.997 84.4914 156.787 83.9896 156.268C82.3929 154.616 80.7263 153.03 79.1387 151.369C78.5821 150.786 78.2445 150.837 77.7153 151.387C76.1217 153.043 74.4641 154.637 72.8583 156.28C72.3595 156.79 71.8182 156.988 71.0974 156.988C51.4017 156.976 31.709 156.982 12.0133 156.988C6.5328 156.988 1.88563 153.535 0.361919 148.247C0.124695 147.421 0.0121654 146.549 0.0121654 145.671C0.018248 125.832 0.018248 105.99 0.00912402 86.1508C0.00912402 85.4856 0.170315 84.9784 0.672136 84.4894C2.36616 82.8341 3.95678 81.0756 5.68426 79.4567C6.45372 78.7339 6.2682 78.3542 5.62039 77.7346C3.95982 76.1462 2.37529 74.4787 0.736004 72.869C0.2281 72.377 0 71.8424 0 71.1226C0.018248 51.247 0 31.3715 0.0364961 11.4959C0.0456201 5.30602 5.10641 0.145787 11.3168 0.082005C21.0065 -0.0212605 30.6993 0.027335 40.389 0.0182233C50.5683 0.0121489 60.7447 0.0212605 70.924 0C71.5718 0 72.022 0.191345 72.4751 0.649965C74.16 2.35992 75.9362 3.98483 77.5785 5.73427C78.3449 6.55128 78.8041 6.41765 79.4945 5.69479C81.1064 4.00913 82.7974 2.3994 84.4276 0.728933C84.899 0.246015 85.3886 0.0151861 86.0729 0.0151861C105.975 0.0242978 125.881 -0.00911166 145.784 0.0334094C151.854 0.0455583 156.942 5.36069 156.976 11.5505C157.006 16.9811 156.982 22.4117 156.982 27.8392C156.982 32.1551 156.982 36.4709 156.982 40.7868ZM63.6856 93.3368V93.3156C66.7513 93.3156 69.82 93.2973 72.8857 93.3277C73.6399 93.3368 73.9167 93.1181 73.9441 92.3285C73.9806 91.311 73.6977 90.5638 72.9161 89.8683C69.0445 86.418 65.2185 82.9131 61.3681 79.4385C57.3901 75.8455 53.3998 72.2676 49.4248 68.6716C49.0446 68.3284 48.6553 68.1157 48.1262 68.1188C44.3975 68.134 40.6657 68.0489 36.9401 68.1552C31.6117 68.3101 27.1287 71.7209 25.7389 76.5076C24.2608 81.5919 25.8696 86.1872 30.1975 89.2366C31.6634 90.2692 31.9219 90.1872 32.5241 88.4955C33.1628 86.7066 34.136 86.0019 36.0368 85.9928C38.4425 85.9807 40.8482 86.011 43.2509 85.9716C43.9991 85.9594 44.5891 86.1811 45.1639 86.6337C47.7308 88.6625 50.3281 90.658 52.8828 92.702C53.4667 93.1698 54.0598 93.352 54.7958 93.3459C57.7581 93.3186 60.7203 93.3338 63.6826 93.3338L63.6856 93.3368ZM125.306 97.51C125.306 96.2222 125.218 94.9283 125.331 93.6527C125.437 92.4712 124.938 91.9336 123.91 91.478C120.857 90.1265 117.846 88.6717 114.826 87.2472C109.914 84.9359 105.002 82.6245 100.1 80.292C99.5187 80.0156 99.0929 79.9943 98.6337 80.5106C97.037 82.3056 95.2639 83.9184 93.4391 85.4795C92.4081 86.3603 92.408 86.3816 93.4908 87.1773C100.471 92.3042 107.454 97.428 114.433 102.555C114.814 102.834 115.221 102.971 115.696 102.968C118.585 102.962 121.477 102.947 124.366 102.98C125.121 102.989 125.331 102.688 125.318 101.996C125.288 100.502 125.309 99.0043 125.312 97.51H125.306ZM120.747 65.3488C117.438 65.3488 114.129 65.361 110.82 65.3367C110.118 65.3306 109.655 65.5432 109.3 66.175C107.752 68.9388 106.009 71.5812 104.069 74.0869C103.545 74.7612 103.485 75.0558 104.397 75.3747C113.171 78.4453 121.936 81.5463 130.695 84.6595C131.477 84.9359 131.726 84.8144 131.723 83.9366C131.702 78.093 131.714 72.2494 131.751 66.4058C131.757 65.5797 131.486 65.3215 130.671 65.3306C127.362 65.3671 124.053 65.3458 120.744 65.3488H120.747ZM86.0121 50.7064V50.7125C81.8303 50.7125 77.6454 50.7125 73.4635 50.7125C72.9769 50.7125 72.4994 50.7459 72.0311 50.9342C64.741 53.9016 57.4479 56.8659 50.1456 59.8059C49.2545 60.1643 49.367 60.4711 49.9905 61.0086C51.572 62.3724 53.1383 63.7573 54.665 65.1818C55.179 65.6647 55.6078 65.6981 56.2465 65.4582C61.8548 63.3503 67.4782 61.282 73.0925 59.1863C73.8194 58.916 74.5463 58.7733 75.3309 58.7763C81.8151 58.7945 88.2992 58.7581 94.7803 58.8127C95.7839 58.8218 96.307 58.4543 96.7389 57.6404C97.7304 55.7634 98.655 53.853 99.4609 51.8879C99.905 50.8005 99.838 50.7064 98.6671 50.7034C94.4488 50.7003 90.2305 50.7034 86.0152 50.7034L86.0121 50.7064ZM35.7175 130.421C35.2704 129.805 35.2035 129.243 35.0454 128.717C33.8957 124.921 32.737 121.127 31.6391 117.316C31.411 116.52 31.0217 116.274 30.237 116.301C28.8106 116.35 27.3781 116.344 25.9517 116.289C25.1336 116.259 24.8569 116.535 24.8629 117.364C24.8994 120.845 24.8782 124.326 24.8782 127.806C24.8782 130.242 24.8934 132.678 24.869 135.114C24.8629 135.821 25.0819 136.131 25.8392 136.074C26.6725 136.013 27.512 136.031 28.3483 136.067C28.9992 136.098 29.1908 135.821 29.1847 135.205C29.1512 131.551 29.1452 127.897 29.1299 124.244C29.1299 123.733 28.914 123.211 29.1695 122.515C29.3063 122.816 29.3763 122.928 29.4128 123.053C30.4195 126.382 31.4231 129.714 32.4298 133.042C33.3574 136.104 33.3574 136.067 36.6025 136.098C37.5666 136.107 37.959 135.718 38.2114 134.862C39.2515 131.323 40.3282 127.797 41.4109 124.271C41.5751 123.736 41.642 123.138 42.0587 122.664C42.3111 122.941 42.2168 123.19 42.2138 123.417C42.2047 127.244 42.2138 131.074 42.153 134.901C42.1378 135.84 42.451 136.149 43.3543 136.083C44.1511 136.025 44.9571 136.046 45.7569 136.083C46.3987 136.113 46.5933 135.852 46.5933 135.226C46.5751 129.206 46.5751 123.184 46.5933 117.164C46.5933 116.511 46.3378 116.31 45.7296 116.319C44.2667 116.341 42.8008 116.368 41.3379 116.307C40.4863 116.274 40.1001 116.593 39.8598 117.401C38.8561 120.805 37.8099 124.198 36.7394 127.581C36.4535 128.49 36.2771 129.452 35.7144 130.421H35.7175ZM132.079 125.865C132.134 125.173 132 123.998 131.723 122.843C130.61 118.23 127.636 116.016 122.572 116.001C117.563 115.985 114.379 118.449 113.412 123.096C112.949 125.31 112.986 127.53 113.515 129.723C113.859 131.15 114.452 132.487 115.486 133.586C117.961 136.213 121.115 136.556 124.449 136.195C126.365 135.989 128.095 135.29 129.461 133.865C131.471 131.764 132.003 129.149 132.079 125.868V125.865ZM80.2457 136.064C80.6989 136.064 81.1551 136.089 81.6052 136.055C82.0067 136.025 82.5572 136.277 82.7761 135.882C83.0225 135.436 82.5115 135.077 82.2743 134.725C80.5833 132.213 78.8954 129.701 77.1466 127.232C76.657 126.54 76.584 126.029 77.0645 125.288C78.7859 122.634 80.4221 119.922 82.1162 117.249C82.548 116.565 82.5176 116.283 81.6174 116.319C80.5377 116.362 79.455 116.368 78.3784 116.307C77.5694 116.262 77.104 116.565 76.7208 117.267C75.8723 118.822 74.9386 120.332 74.0566 121.868C73.7099 122.476 73.4605 122.558 73.0803 121.868C72.3261 120.499 71.4532 119.193 70.7324 117.808C70.1607 116.702 69.4459 116.08 68.1199 116.286C67.4387 116.392 66.727 116.277 66.0336 116.316C65.6047 116.341 65.0025 116.089 64.7866 116.532C64.6133 116.884 65.1029 117.249 65.3188 117.592C66.8943 120.095 68.4636 122.603 70.0664 125.088C70.48 125.729 70.4587 126.215 70.0268 126.865C68.2142 129.586 66.4654 132.353 64.6954 135.105C64.5463 135.336 64.2726 135.557 64.3973 135.846C64.5555 136.21 64.9417 136.077 65.2367 136.08C66.3164 136.089 67.3991 136.034 68.4758 136.092C69.2513 136.131 69.6892 135.794 70.0633 135.162C71.0153 133.544 72.0311 131.961 72.9861 130.345C73.3693 129.695 73.6399 129.489 74.0992 130.294C74.7926 131.499 75.6411 132.623 76.2677 133.859C77.1192 135.533 78.1503 136.711 80.2457 136.067V136.064ZM56.9704 116.31V116.316C55.4375 116.316 53.8986 116.38 52.3719 116.295C51.3196 116.234 51.0671 116.666 51.0732 117.613C51.1097 123.387 51.1462 129.164 51.0945 134.938C51.0854 135.964 51.4777 136.095 52.308 136.083C54.8171 136.052 57.3262 136.071 59.8353 136.071C62.7367 136.071 62.7124 136.071 62.679 133.112C62.6698 132.341 62.4144 132.052 61.6479 132.067C60.0452 132.101 58.4424 132.067 56.8396 132.089C56.1979 132.098 55.8664 131.919 55.9089 131.202C55.9606 130.336 55.9637 129.462 55.912 128.593C55.8724 127.919 56.1796 127.745 56.7757 127.761C57.6121 127.785 58.4485 127.77 59.2848 127.767C61.2718 127.767 62.2339 126.773 62.1711 124.784C62.1711 124.751 62.1711 124.714 62.1711 124.681C62.2288 124.092 61.9399 123.864 61.3712 123.873C60.4314 123.885 59.4886 123.864 58.5488 123.864C55.839 123.864 55.8603 123.864 55.8876 121.179C55.8937 120.474 56.0732 120.165 56.8274 120.207C57.8007 120.259 58.78 120.241 59.7532 120.216C63.2781 120.122 62.5664 120.805 62.6729 117.218C62.6972 116.444 62.3627 116.283 61.6753 116.301C60.109 116.338 58.5397 116.313 56.9704 116.313V116.31ZM95.9634 126.512C95.8904 127.269 96.0485 128.298 96.231 129.328C96.8484 132.802 99.2754 135.436 102.527 136.071C104.707 136.496 106.891 136.438 109.044 135.821C110.066 135.53 110.577 134.838 110.577 133.747C110.577 133.225 110.556 132.702 110.589 132.183C110.638 131.417 110.346 131.269 109.655 131.539C108.585 131.958 107.475 132.241 106.319 132.356C104.099 132.581 102.326 131.752 101.517 129.817C100.51 127.396 100.611 124.915 101.657 122.518C102.438 120.723 103.892 119.952 105.845 120.019C106.949 120.058 107.995 120.313 108.965 120.787C109.75 121.17 110.09 120.954 110.325 120.174C110.513 119.545 110.793 118.938 111.091 118.348C111.468 117.598 111.24 117.243 110.474 116.957C108.582 116.25 106.626 115.928 104.631 116.055C101.988 116.222 99.7073 117.218 98.0315 119.372C96.4591 121.392 95.939 123.721 95.9634 126.515V126.512ZM111.392 58.7793V58.7884C114.072 58.7884 116.751 58.7641 119.43 58.8036C120.221 58.8158 120.668 58.509 120.905 57.7892C121.562 55.7755 122.204 53.7558 122.904 51.7573C123.214 50.8704 122.922 50.6942 122.064 50.7003C116.985 50.7307 111.903 50.7277 106.824 50.6973C106.048 50.6912 105.635 50.922 105.349 51.6631C104.561 53.7041 103.722 55.7269 102.743 57.689C102.256 58.6639 102.329 58.7763 103.46 58.7793C106.103 58.7854 108.749 58.7793 111.392 58.7793ZM121.024 25.865C121.669 26.2203 121.8 26.7154 122.028 27.1224C123.095 29.0358 124.369 30.8733 125.139 32.9022C126.118 35.493 127.815 36.1976 130.352 35.8514C131.07 35.7542 131.273 35.5901 131.267 34.8825C131.24 31.092 131.273 27.3016 131.258 23.5111C131.246 21.1208 131.687 21.4549 129.065 21.4003C128.32 21.3851 128.104 21.6736 128.116 22.3813C128.156 24.7807 128.147 27.1801 128.162 29.5795C128.165 30.108 128.293 30.6456 128.122 31.2105C127.983 31.1224 127.907 31.1011 127.879 31.0495C126.644 28.8323 125.401 26.6182 124.184 24.3919C122.56 21.4246 122.569 21.458 119.23 21.4397C118.269 21.4337 118.077 21.7769 118.086 22.6577C118.129 26.3418 118.08 30.029 118.104 33.7162C118.12 35.9698 117.672 35.7815 120.221 35.8453C121.009 35.8665 121.225 35.6418 121.203 34.8582C121.124 31.909 121.292 28.9599 121.03 25.8619L121.024 25.865ZM86.4653 126.227H86.4774C86.4774 127.894 86.4379 129.565 86.4957 131.232C86.52 132.007 86.2767 132.432 85.5437 132.723C83.8832 133.386 83.9166 133.416 84.014 135.247C84.0444 135.831 84.2725 136.058 84.8321 136.058C87.5115 136.058 90.194 136.064 92.8734 136.058C93.2231 136.058 93.5425 136.016 93.6489 135.548C94.0108 133.984 93.6641 133.225 92.1587 132.681C91.4987 132.441 91.2371 132.113 91.2432 131.399C91.2767 127.922 91.2706 124.447 91.2493 120.969C91.2463 120.332 91.4379 119.97 92.0613 119.712C93.7706 119.001 93.7341 118.971 93.6459 117.094C93.6185 116.496 93.3874 116.31 92.8247 116.313C90.1453 116.329 87.4628 116.319 84.7834 116.326C84.5158 116.326 84.2329 116.286 84.0778 116.623C83.6155 117.635 84.1569 119.138 85.2092 119.49C86.1855 119.818 86.5443 120.383 86.4866 121.425C86.3984 123.02 86.4622 124.623 86.4622 126.221L86.4653 126.227ZM96.7146 28.6865C96.8362 24.401 94.8016 21.6888 90.9148 21.2666C86.7664 20.8141 83.5699 22.5392 82.9738 27.1042C82.8035 28.4041 82.8887 29.6736 83.1441 30.9311C83.6034 33.2029 84.8351 34.8734 87.1252 35.5962C89.7438 36.4223 93.8436 36.2705 95.6562 33.0936C96.4348 31.7268 96.7085 30.2386 96.7176 28.6896L96.7146 28.6865ZM37.743 28.723C37.743 27.089 37.743 25.4549 37.743 23.8209C37.743 21.3091 37.743 21.3304 35.2248 21.4033C34.5314 21.4246 34.1968 21.622 34.2394 22.3691C34.285 23.2013 34.2485 24.0366 34.2485 24.8718C34.2485 26.8976 34.2485 26.928 32.2382 26.8855C31.2802 26.8642 30.0606 27.335 29.431 26.6638C28.8136 26.0047 29.2425 24.7989 29.2303 23.8361C29.1969 21.3881 29.2181 21.4276 26.8094 21.3942C25.9183 21.382 25.6841 21.6858 25.6932 22.5331C25.7328 26.114 25.6811 29.6979 25.7206 33.2788C25.7541 36.2948 25.164 35.745 28.3149 35.8331C28.9992 35.8514 29.2394 35.6144 29.2242 34.9371C29.1908 33.5127 29.2364 32.0852 29.209 30.6607C29.1969 30.026 29.431 29.7982 30.0636 29.8194C31.1768 29.8528 32.2929 29.8468 33.4061 29.8134C34.0326 29.7951 34.2972 30.0229 34.2759 30.6577C34.2485 31.5263 34.2698 32.395 34.2698 33.2667C34.2698 35.8696 34.2698 35.8362 36.858 35.8453C37.6305 35.8453 37.7704 35.5719 37.7582 34.8825C37.7187 32.8324 37.743 30.7792 37.7461 28.726L37.743 28.723ZM79.4094 28.6623C79.4094 27.0616 79.4094 25.4641 79.4094 23.8634C79.4094 21.2484 79.4094 21.2636 76.7147 21.4367C76.1369 21.4731 75.9057 21.6736 75.921 22.2507C75.9483 23.1527 75.927 24.0578 75.927 24.9629C75.927 26.8976 75.927 26.928 74.0201 26.8855C73.0286 26.8642 71.7665 27.335 71.1156 26.6516C70.4739 25.9773 70.8936 24.723 70.8815 23.7237C70.851 21.4337 70.8693 21.4701 68.5579 21.4397C67.6546 21.4276 67.3444 21.6918 67.3565 22.6243C67.4052 26.1687 67.3626 29.7162 67.3748 33.2636C67.387 36.2978 67.0676 35.7663 70.0055 35.8483C70.699 35.8665 70.9392 35.6205 70.924 34.9675C70.8936 33.5431 70.9119 32.1186 70.8662 30.6942C70.845 30.0077 71.1096 29.7708 71.7847 29.7951C72.8614 29.8346 73.9441 29.8346 75.0207 29.7951C75.6868 29.7708 75.9727 29.9865 75.9422 30.682C75.8997 31.5841 75.9118 32.4891 75.9331 33.3942C76 36.1368 75.3978 35.7815 78.4574 35.8544C79.1752 35.8726 79.4367 35.6661 79.4215 34.922C79.379 32.8354 79.4063 30.7488 79.4094 28.6653V28.6623ZM106.197 28.6045C106.197 30.5848 106.243 32.5681 106.179 34.5453C106.146 35.5233 106.404 35.9091 107.451 35.8605C109.221 35.7785 111 35.8362 112.773 35.8362C114.75 35.8362 114.728 35.8362 114.643 33.8103C114.616 33.1816 114.391 32.9447 113.767 32.9599C112.691 32.9873 111.608 32.9447 110.531 32.966C109.911 32.9781 109.689 32.7382 109.659 32.1125C109.555 29.7891 109.534 29.7921 111.836 29.7921C111.976 29.7921 112.116 29.7921 112.253 29.7921C114.348 29.7921 114.321 29.7921 114.248 27.7268C114.227 27.1224 114.017 26.928 113.451 26.9371C112.441 26.9553 111.432 26.9432 110.422 26.9371C110.072 26.9371 109.762 26.9462 109.659 26.4481C109.297 24.7139 109.622 24.2735 111.356 24.2704C111.809 24.2704 112.262 24.2704 112.712 24.2704C114.82 24.2735 114.804 24.2765 114.637 22.1869C114.592 21.6038 114.342 21.3972 113.786 21.4033C111.593 21.4246 109.4 21.4519 107.21 21.4246C106.362 21.4124 106.161 21.7738 106.179 22.5544C106.225 24.5681 106.194 26.5848 106.194 28.6015L106.197 28.6045ZM46.0276 21.4549C44.948 21.4549 43.8683 21.4853 42.7886 21.4458C42.01 21.4154 41.7667 21.7313 41.7728 22.4937C41.8032 26.5635 41.8093 30.6304 41.7819 34.7002C41.7758 35.5081 42.0374 35.8179 42.8616 35.7997C44.6712 35.7572 46.4838 35.7876 48.2934 35.7876C50.3007 35.7876 50.2764 35.7876 50.1973 33.7769C50.173 33.133 49.9388 32.9174 49.3184 32.9478C48.5884 32.9842 47.8555 32.9599 47.1256 32.9538C45.0757 32.9417 45.3555 33.127 45.2734 31.086C45.2338 30.114 45.4893 29.6463 46.5355 29.786C47.013 29.8498 47.5088 29.7951 47.9954 29.7951C49.9479 29.7951 49.9175 29.7951 49.8932 27.8604C49.884 27.1011 49.5708 26.8946 48.8804 26.9219C48.0106 26.9553 47.1377 26.8824 46.2709 26.9432C45.465 26.9979 45.1973 26.6638 45.2886 25.9105C45.322 25.6372 45.319 25.3517 45.2916 25.0783C45.2308 24.4436 45.5076 24.2006 46.1371 24.2279C46.867 24.2613 47.6 24.234 48.3299 24.234C50.2551 24.234 50.2368 24.234 50.2156 22.3205C50.2095 21.7101 50.0087 21.4306 49.367 21.4489C48.2539 21.4792 47.1377 21.458 46.0246 21.4549H46.0276ZM53.0927 28.6228C53.0927 28.9022 53.0805 29.1786 53.0927 29.458C53.2326 32.5955 54.6711 34.7519 57.314 35.657C58.7252 36.1399 60.2003 36.0457 61.6571 35.8544C63.7069 35.5871 63.9046 35.3381 63.8286 33.2788C63.8286 33.209 63.8286 33.1391 63.8286 33.0693C63.8347 32.4922 63.5457 32.3342 63.0196 32.4983C62.4904 32.6653 61.9673 32.8627 61.4229 32.9721C58.5579 33.54 56.8183 32.152 56.7301 29.2424C56.7179 28.8263 56.7088 28.4071 56.7301 27.991C56.8578 24.9994 58.78 23.6022 61.6692 24.401C62.8209 24.7189 63.6076 24.313 64.0293 23.1831C64.0658 23.0859 64.0962 22.9857 64.1418 22.8915C64.3669 22.4177 64.2513 22.1262 63.7343 21.9318C58.5367 19.9788 53.0775 22.117 53.0927 28.6228ZM70.261 73.6374C71.3285 73.6526 72.4903 73.4643 73.6217 73.0938C77.101 71.9578 79.5493 69.7042 80.9757 66.3359C81.2585 65.6708 81.222 65.2881 80.337 65.3276C79.2238 65.3762 78.1107 65.361 76.9945 65.3428C76.4654 65.3337 76.1004 65.4886 75.778 65.9563C74.1661 68.2767 71.4046 69.4612 68.7616 68.6412C67.2258 68.1643 65.9271 68.3375 64.5494 68.8993C64.0019 69.1241 63.421 69.2577 62.8706 69.4703C62.536 69.5979 62.0068 69.5311 61.9521 70.0019C61.9095 70.3663 62.3231 70.5577 62.5786 70.7824C64.744 72.6655 67.2957 73.5341 70.2641 73.6374H70.261ZM99.689 102.956C101.024 102.956 101.93 102.962 102.837 102.953C103.068 102.953 103.378 103.047 103.503 102.792C103.67 102.448 103.311 102.315 103.117 102.151C98.3508 98.1387 93.5759 94.1356 88.8162 90.1113C88.3387 89.7073 87.989 89.7651 87.5358 90.1113C86.9002 90.5973 86.2493 91.0711 85.559 91.472C84.8017 91.9093 84.753 92.2373 85.4403 92.8418C88.3387 95.3991 91.2493 97.9473 94.0412 100.614C95.7809 102.275 97.5297 103.615 99.686 102.956H99.689ZM94.9597 65.3367C93.1501 65.3367 91.3405 65.3367 89.534 65.3367C88.3742 65.3367 87.6342 65.8712 87.3138 66.9403C87.1739 67.405 87.037 67.8728 86.8546 68.3253C86.6447 68.8508 86.739 69.1423 87.3199 69.3428C90.343 70.3845 93.36 71.4506 96.3679 72.5349C96.9031 72.7262 97.2712 72.6807 97.6392 72.219C99.1568 70.3177 100.608 68.3648 101.927 66.3238C102.448 65.5159 102.347 65.3488 101.328 65.3428C99.2054 65.3306 97.0826 65.3397 94.9628 65.3397L94.9597 65.3367ZM93.0407 77.2487C93.0285 76.9115 92.773 76.8295 92.5692 76.7323C90.0236 75.5266 87.472 74.3299 84.9233 73.1332C84.6253 72.9935 84.2998 72.9297 84.0626 73.2274C82.9677 74.6063 81.517 75.5812 80.1636 76.6655C79.7682 76.9844 79.8291 77.1879 80.2001 77.4582C82.3686 79.0285 84.534 80.6018 86.6842 82.1963C87.1617 82.5486 87.478 82.3907 87.8704 82.0657C89.5036 80.7111 91.0881 79.3049 92.5784 77.7954C92.7456 77.6253 92.8886 77.4279 93.0376 77.2487H93.0407ZM75.1849 79.1317C74.2148 79.4172 73.0803 79.5934 71.9429 79.7392C71.7452 79.7635 71.4836 79.7088 71.3833 79.9305C71.2464 80.2403 71.5688 80.3466 71.7269 80.4924C73.6612 82.2419 75.6047 83.9791 77.542 85.7255C79.1458 87.1692 80.8114 87.2715 82.5389 86.0323C82.5967 85.9928 82.6575 85.9594 82.7153 85.9199C83.1806 85.598 83.1654 85.3246 82.7153 84.9541C80.5468 83.1561 78.4027 81.3307 76.2464 79.5205C75.9818 79.2988 75.7172 79.0528 75.1849 79.1348V79.1317ZM58.561 111.818C56.4229 111.156 55.4801 112.763 54.3761 114.035C54.1784 114.266 53.9534 114.71 54.4491 114.749C55.5075 114.834 56.648 115.135 57.6212 114.582C58.6431 113.999 59.5464 113.212 60.5014 112.514C60.6656 112.392 60.8967 112.268 60.7872 112.028C60.693 111.821 60.4466 111.818 60.2337 111.818C59.6772 111.818 59.1206 111.818 58.561 111.818Z" fill="white"/>
<path d="M76.8121 3.89368C76.7877 3.94835 76.7634 4.00606 76.7391 4.06073C76.6843 4.03643 76.5961 4.02428 76.5809 3.98176C76.5657 3.94228 76.6205 3.87242 76.6448 3.81775C76.6995 3.84205 76.7573 3.86634 76.8121 3.89064V3.89368Z" fill="white"/>
<path d="M78.9015 5.35156C78.8771 5.40623 78.865 5.49127 78.8224 5.50646C78.7829 5.52164 78.7159 5.46697 78.6612 5.44268C78.6855 5.38801 78.6977 5.30296 78.7372 5.28778C78.7768 5.27259 78.8437 5.32726 78.8984 5.35156H78.9015Z" fill="white"/>
<path d="M118.116 126.187C118.171 125.042 118.196 123.891 118.609 122.798C119.327 120.896 120.75 119.87 122.542 119.955C124.935 120.067 126.124 120.972 126.687 123.168C127.234 125.307 127.174 127.445 126.544 129.559C126.036 131.259 124.725 132.198 122.867 132.247C120.729 132.301 119.357 131.499 118.716 129.768C118.29 128.617 118.059 127.423 118.12 126.187H118.116Z" fill="white"/>
<path d="M93.0498 28.6744C92.9768 29.2576 92.9312 29.8468 92.8217 30.4269C92.475 32.2735 91.5534 33.0116 89.6343 33.0177C88.1928 33.0237 87.0979 32.0731 86.7633 30.4968C86.4136 28.8324 86.3619 27.171 87.18 25.622C87.8339 24.3828 88.9653 23.9151 90.4464 24.149C91.6173 24.3342 92.4719 25.133 92.7517 26.3995C92.916 27.1437 93.1136 27.8908 93.0498 28.6775V28.6744Z" fill="white"/>
</g>
<defs>
<clipPath id="clip0_256_827">
<rect width="157" height="157" fill="white"/>
</clipPath>
</defs>
</svg>
